# xmcd
#
# Track frame offsets: 
#        150
#        14767
#        29225
#        42635
#        58225
#        72830
#        86027
#        99820
#        114192
#        126790
#        138252
#        151185
#        167357
#        182532
#        195870
#        208722
#        222387
#        234225
#        252335
#        264280
#
# Disc length: 3709 seconds
#
# Revision: 0
# Processed by: cddbd v1.5.1PL2 Copyright (c) Steve Scherf et al.
# Submitted via: ExactAudioCopy v0.95b3
#
DISCID=120e7b14
DTITLE=Various Artist - How Blues Was Born
DYEAR=2005
DGENRE=Blues
TTITLE0=Leadbelly/John Hardy
TTITLE1=Leadbelly/T.B.
TTITLE2=Cab Calloway/Basin Street Bluesm
TTITLE3=Miff Mole's Molers/Navy Blues
TTITLE4=Cab Calloway/Minnie The Moocher
TTITLE5=Leadbelly/Good Morning Blues
TTITLE6=Leadbelly/The Boll Weevil
TTITLE7=Miff Mole's Molers/Davenport Blues
TTITLE8=Miff Mole's Molers/Honolulu Blues
TTITLE9=Leadbelly/Mother's Blues
TTITLE10=Miff Mole's Molers/Imagination
TTITLE11=Art Tatum/Fifty Second Street Blues
TTITLE12=Leadbelly/The Burgeois Blues
TTITLE13=Leadbelly/Packing Trunk Blues
TTITLE14=Miff Mole's Molers/After You're Gone
TTITLE15=Leadbelly/Leaving Blues
TTITLE16=Art Tatum/St. Louis Blues
TTITLE17=Art Tatum/Midnight Melody
TTITLE18=Earl Fatha Hines/Wolverine Blues
TTITLE19=Louis Armstrong and Orchestra/Lonesome Hours
EXTD=
EXTT0=
EXTT1=
EXTT2=
EXTT3=
EXTT4=
EXTT5=
EXTT6=
EXTT7=
EXTT8=
EXTT9=
EXTT10=
EXTT11=
EXTT12=
EXTT13=
EXTT14=
EXTT15=
EXTT16=
EXTT17=
EXTT18=
EXTT19=
PLAYORDER=
